<svg width="200" height="200" viewBox="0 0 200 200" fill="none" xmlns="http://www.w3.org/2000/svg">
<path d="M165.625 25H131.25V18.75C131.25 8.41133 122.839 0 112.5 0H87.5C77.1613 0 68.75 8.41133 68.75 18.75V25H34.375C25.7594 25 18.75 32.0094 18.75 40.625V62.5C18.75 65.9516 21.5484 68.75 25 68.75H28.4156L33.8152 182.142C34.2922 192.156 42.5187 200 52.5437 200H147.456C157.482 200 165.708 192.156 166.185 182.142L171.584 68.75H175C178.452 68.75 181.25 65.9516 181.25 62.5V40.625C181.25 32.0094 174.241 25 165.625 25ZM81.25 18.75C81.25 15.3039 84.0539 12.5 87.5 12.5H112.5C115.946 12.5 118.75 15.3039 118.75 18.75V25H81.25V18.75ZM31.25 40.625C31.25 38.902 32.652 37.5 34.375 37.5H165.625C167.348 37.5 168.75 38.902 168.75 40.625V56.25C166.824 56.25 39.2316 56.25 31.25 56.25V40.625ZM153.699 181.547C153.54 184.885 150.798 187.5 147.456 187.5H52.5437C49.202 187.5 46.4598 184.885 46.3012 181.547L40.9297 68.75H159.07L153.699 181.547Z" fill="white"/>
<path d="M100 175C103.452 175 106.25 172.202 106.25 168.75V87.5C106.25 84.0484 103.452 81.25 100 81.25C96.5484 81.25 93.75 84.0484 93.75 87.5V168.75C93.75 172.202 96.548 175 100 175Z" fill="white"/>
<path d="M131.25 175C134.702 175 137.5 172.202 137.5 168.75V87.5C137.5 84.0484 134.702 81.25 131.25 81.25C127.798 81.25 125 84.0484 125 87.5V168.75C125 172.202 127.798 175 131.25 175Z" fill="white"/>
<path d="M68.75 175C72.2016 175 75 172.202 75 168.75V87.5C75 84.0484 72.2016 81.25 68.75 81.25C65.2984 81.25 62.5 84.0484 62.5 87.5V168.75C62.5 172.202 65.298 175 68.75 175Z" fill="white"/>
</svg>
