<svg width="512" height="512" viewBox="0 0 512 512" fill="none" xmlns="http://www.w3.org/2000/svg">
<path d="M476 64H36C33.3733 63.9992 30.7723 64.516 28.3454 65.5208C25.9185 66.5256 23.7134 67.9988 21.8561 69.8561C19.9988 71.7134 18.5256 73.9185 17.5208 76.3454C16.516 78.7723 15.9992 81.3733 16 84V336H496V84C496.001 81.3733 495.484 78.7723 494.479 76.3454C493.474 73.9185 492.001 71.7134 490.144 69.8561C488.287 67.9988 486.081 66.5256 483.655 65.5208C481.228 64.516 478.627 63.9992 476 64V64ZM288 312H224V288H288V312ZM296 209.97V208C296 197.391 291.786 187.217 284.284 179.716C276.783 172.214 266.609 168 256 168C245.391 168 235.217 172.214 227.716 179.716C220.214 187.217 216 197.391 216 208V209.97C205.649 201.683 198.128 190.385 194.476 177.638C190.823 164.892 191.22 151.325 195.612 138.814C200.003 126.302 208.172 115.464 218.99 107.796C229.808 100.128 242.74 96.01 256 96.01C269.26 96.01 282.192 100.128 293.01 107.796C303.828 115.464 311.997 126.302 316.388 138.814C320.78 151.325 321.177 164.892 317.524 177.638C313.872 190.385 306.351 201.683 296 209.97V209.97Z" fill="#63CDDA"/>
<path d="M192 424L208 384H304L320 424H192Z" fill="#63CDDA"/>
<path d="M320 424H368V448H144V424H192H320Z" fill="#63CDDA"/>
<path d="M296 208V209.97C284.648 219.052 270.543 224 256.005 224C241.467 224 227.362 219.052 216.01 209.97H216V208C216 197.391 220.214 187.217 227.716 179.716C235.217 172.214 245.391 168 256 168C266.609 168 276.783 172.214 284.284 179.716C291.786 187.217 296 197.391 296 208V208Z" fill="#63CDDA"/>
<path d="M476 56H36C28.5765 56.0082 21.4593 58.9608 16.2101 64.2101C10.9608 69.4593 8.00821 76.5765 8 84V364C8.00821 371.424 10.9608 378.541 16.2101 383.79C21.4593 389.039 28.5765 391.992 36 392H196.18L186.58 416H144C141.878 416 139.843 416.843 138.343 418.343C136.843 419.843 136 421.878 136 424V440H88C85.8783 440 83.8434 440.843 82.3431 442.343C80.8429 443.843 80 445.878 80 448C80 450.122 80.8429 452.157 82.3431 453.657C83.8434 455.157 85.8783 456 88 456H424C426.122 456 428.157 455.157 429.657 453.657C431.157 452.157 432 450.122 432 448C432 445.878 431.157 443.843 429.657 442.343C428.157 440.843 426.122 440 424 440H376V424C376 421.878 375.157 419.843 373.657 418.343C372.157 416.843 370.122 416 368 416H325.42L315.82 392H476C483.424 391.992 490.541 389.039 495.79 383.79C501.039 378.541 503.992 371.424 504 364V84C503.992 76.5765 501.039 69.4593 495.79 64.2101C490.541 58.9608 483.424 56.0082 476 56V56ZM360 432V440H152V432H360ZM203.82 416L213.42 392H298.58L308.18 416H203.82ZM488 364C487.997 367.182 486.732 370.232 484.482 372.482C482.232 374.732 479.182 375.997 476 376H36C32.8182 375.997 29.7675 374.732 27.5176 372.482C25.2678 370.232 24.0026 367.182 24 364V344H488V364ZM488 328H24V84C24.0026 80.8182 25.2678 77.7675 27.5176 75.5176C29.7675 73.2678 32.8182 72.0026 36 72H476C479.182 72.0026 482.232 73.2678 484.482 75.5176C486.732 77.7675 487.997 80.8182 488 84V328Z" fill="#48B1BE"/>
<path d="M256 232C270.24 232 284.161 227.777 296.001 219.866C307.841 211.954 317.07 200.71 322.519 187.553C327.969 174.397 329.395 159.92 326.617 145.954C323.838 131.987 316.981 119.158 306.912 109.088C296.842 99.019 284.013 92.1616 270.047 89.3835C256.08 86.6054 241.603 88.0312 228.447 93.4807C215.291 98.9302 204.046 108.159 196.134 119.999C188.223 131.839 184 145.76 184 160C184.021 179.089 191.614 197.39 205.112 210.888C218.61 224.386 236.911 231.979 256 232ZM224.071 205.968C224.589 197.852 228.178 190.238 234.109 184.674C240.04 179.109 247.868 176.012 256 176.012C264.132 176.012 271.96 179.109 277.891 184.674C283.822 190.238 287.411 197.852 287.929 205.968C278.563 212.499 267.419 216.001 256 216.001C244.581 216.001 233.437 212.499 224.071 205.968V205.968ZM240 144C240 140.836 240.938 137.742 242.696 135.111C244.455 132.48 246.953 130.429 249.877 129.218C252.801 128.007 256.018 127.69 259.121 128.307C262.225 128.925 265.076 130.449 267.314 132.686C269.551 134.924 271.075 137.775 271.693 140.879C272.31 143.982 271.993 147.199 270.782 150.123C269.571 153.047 267.52 155.545 264.889 157.304C262.258 159.062 259.165 160 256 160C251.758 159.995 247.691 158.308 244.692 155.308C241.692 152.309 240.005 148.242 240 144V144ZM256 104C266.299 103.992 276.401 106.826 285.193 112.191C293.984 117.556 301.125 125.244 305.827 134.407C310.53 143.57 312.612 153.853 311.845 164.124C311.077 174.395 307.49 184.254 301.478 192.617C297.625 181.283 289.69 171.788 279.22 165.984C283.527 161.444 286.407 155.74 287.506 149.579C288.604 143.419 287.872 137.071 285.4 131.322C282.928 125.573 278.825 120.675 273.598 117.234C268.371 113.793 262.249 111.96 255.991 111.963C249.733 111.965 243.614 113.802 238.389 117.246C233.164 120.691 229.064 125.592 226.596 131.342C224.128 137.093 223.4 143.441 224.503 149.601C225.606 155.761 228.49 161.463 232.8 166C222.332 171.809 214.398 181.303 210.541 192.637C204.524 184.276 200.933 174.416 200.162 164.144C199.39 153.871 201.47 143.586 206.171 134.42C210.872 125.254 218.012 117.564 226.804 112.196C235.596 106.829 245.699 103.993 256 104V104Z" fill="#48B1BE"/>
<path d="M304 248H208C205.878 248 203.843 248.843 202.343 250.343C200.843 251.843 200 253.878 200 256C200 258.122 200.843 260.157 202.343 261.657C203.843 263.157 205.878 264 208 264H304C306.122 264 308.157 263.157 309.657 261.657C311.157 260.157 312 258.122 312 256C312 253.878 311.157 251.843 309.657 250.343C308.157 248.843 306.122 248 304 248Z" fill="#48B1BE"/>
<path d="M288 280H224C221.878 280 219.843 280.843 218.343 282.343C216.843 283.843 216 285.878 216 288V312C216 314.122 216.843 316.157 218.343 317.657C219.843 319.157 221.878 320 224 320H288C290.122 320 292.157 319.157 293.657 317.657C295.157 316.157 296 314.122 296 312V288C296 285.878 295.157 283.843 293.657 282.343C292.157 280.843 290.122 280 288 280ZM280 304H232V296H280V304Z" fill="#48B1BE"/>
</svg>
