<svg width="630" height="364" viewBox="0 0 630 364" fill="none" xmlns="http://www.w3.org/2000/svg">
<g clip-path="url(#clip0)">
<path d="M294.682 34.2527L292.581 48.0778L619.701 97.786L621.802 83.9609L294.682 34.2527Z" fill="#F5F5F5"/>
<path d="M289.041 28.6847L249.311 290.165L590.256 341.974L629.986 80.4936L289.041 28.6847Z" fill="url(#paint0_linear)"/>
<path d="M292.573 48.0749L256.343 286.516L583.464 336.224L619.693 97.7832L292.573 48.0749Z" fill="#F5F5F5"/>
<path d="M304.998 42.8915C305.282 41.0249 303.999 39.2818 302.132 38.9981C300.266 38.7145 298.522 39.9978 298.239 41.8643C297.955 43.7309 299.238 45.474 301.105 45.7577C302.971 46.0413 304.715 44.7581 304.998 42.8915Z" fill="#FF5252"/>
<path d="M314.291 44.2996C314.574 42.433 313.291 40.6899 311.425 40.4063C309.558 40.1226 307.815 41.4059 307.532 43.2725C307.248 45.1391 308.531 46.8821 310.398 47.1658C312.264 47.4494 314.007 46.1662 314.291 44.2996Z" fill="#FFFF00"/>
<path d="M323.584 45.7148C323.867 43.8482 322.584 42.105 320.718 41.8214C318.851 41.5378 317.108 42.8211 316.825 44.6877C316.541 46.5542 317.824 48.2973 319.691 48.581C321.557 48.8646 323.3 47.5814 323.584 45.7148Z" fill="#69F0AE"/>
<path d="M303.162 71.4888L290.036 157.882L583.756 202.515L596.883 116.122L303.162 71.4888Z" fill="url(#paint1_linear)"/>
<path d="M593.497 119.14L306.111 75.4695L293.947 155.527L581.332 199.197L593.497 119.14Z" fill="#63CDDA"/>
<path d="M335.067 198.892L332.529 215.596L352.111 218.572L354.649 201.868L335.067 198.892Z" fill="url(#paint2_linear)"/>
<path d="M354.204 202.978L335.776 200.178L333.675 214.003L352.103 216.803L354.204 202.978Z" fill="#6C63FF"/>
<path d="M350.606 226.592L332.178 223.792L330.078 237.617L348.506 240.417L350.606 226.592Z" fill="#FF5252"/>
<path d="M347.022 250.208L328.594 247.408L326.494 261.233L344.922 264.033L347.022 250.208Z" fill="#FF9800"/>
<path opacity="0.4" d="M532.872 233.074L384.287 210.496L383.062 218.556L531.647 241.134L532.872 233.074Z" fill="#6C63FF"/>
<path opacity="0.4" d="M529.281 256.69L380.696 234.111L379.471 242.171L528.056 264.749L529.281 256.69Z" fill="#6C63FF"/>
<path opacity="0.4" d="M525.697 280.305L377.112 257.726L375.888 265.786L524.473 288.365L525.697 280.305Z" fill="#6C63FF"/>
<path d="M351.452 6.23095L7.65747 83.0818L10.6587 96.5091L354.454 19.6583L351.452 6.23095Z" fill="#F5F5F5"/>
<path d="M358.317 -0.00396697L-0.00341797 80.0938L56.7682 334.087L415.088 253.989L358.317 -0.00396697Z" fill="url(#paint3_linear)"/>
<path d="M354.451 19.666L10.6562 96.5168L62.4258 328.131L406.221 251.28L354.451 19.666Z" fill="#F5F5F5"/>
<path d="M18.2843 91.1992C20.2443 90.7611 21.5048 88.9368 21.0997 87.1246C20.6947 85.3124 18.7774 84.1984 16.8174 84.6366C14.8574 85.0747 13.5969 86.899 14.002 88.7112C14.407 90.5234 16.3243 91.6373 18.2843 91.1992Z" fill="#FF5252"/>
<path d="M28.0538 89.0219C30.0138 88.5838 31.2743 86.7595 30.8693 84.9473C30.4642 83.1351 28.547 82.0211 26.587 82.4593C24.627 82.8974 23.3665 84.7217 23.7715 86.5339C24.1766 88.3461 26.0938 89.46 28.0538 89.0219Z" fill="#FFFF00"/>
<path d="M37.8163 86.8391C39.7763 86.401 41.0368 84.5767 40.6317 82.7645C40.2267 80.9522 38.3094 79.8383 36.3494 80.2765C34.3894 80.7146 33.1289 82.5389 33.534 84.3511C33.939 86.1633 35.8563 87.2772 37.8163 86.8391Z" fill="#69F0AE"/>
<path d="M338.499 44.9649L29.8086 113.969L48.5662 197.889L357.257 128.886L338.499 44.9649Z" fill="url(#paint4_linear)"/>
<path d="M336.225 48.995L34.1929 116.51L51.5742 194.273L353.606 126.758L336.225 48.995Z" fill="#63CDDA"/>
<path d="M129.064 213.96L108.485 218.56L112.111 234.781L132.69 230.181L129.064 213.96Z" fill="url(#paint5_linear)"/>
<path d="M130.631 216.136L111.179 220.503L114.206 233.987L133.658 229.62L130.631 216.136Z" fill="#6C63FF"/>
<path d="M134.141 238.083L114.769 242.413L117.771 255.841L137.142 251.51L134.141 238.083Z" fill="#FF5252"/>
<path d="M141.018 262.18L121.565 266.547L124.592 280.031L144.044 275.664L141.018 262.18Z" fill="#FF9800"/>
<path opacity="0.4" d="M317.87 175.862L161.712 210.769L163.463 218.602L319.62 183.695L317.87 175.862Z" fill="#6C63FF"/>
<path opacity="0.4" d="M322.996 198.804L166.838 233.71L168.589 241.543L324.747 206.636L322.996 198.804Z" fill="#6C63FF"/>
<path opacity="0.4" d="M328.122 221.738L171.965 256.645L173.715 264.477L329.873 229.57L328.122 221.738Z" fill="#6C63FF"/>
<path d="M519.141 12.999H119.623V29.8808H519.141V12.999Z" fill="#F5F5F5"/>
<path d="M528.285 7.37173H111.886V326.719H528.285V7.37173Z" fill="url(#paint6_linear)"/>
<path d="M519.141 29.8808H119.623V321.092H519.141V29.8808Z" fill="white"/>
<path d="M129.379 25.5689C131.659 25.5689 133.508 23.7203 133.508 21.4399C133.508 19.1595 131.659 17.3109 129.379 17.3109C127.099 17.3109 125.25 19.1595 125.25 21.4399C125.25 23.7203 127.099 25.5689 129.379 25.5689Z" fill="#FF5252"/>
<path d="M140.725 25.5689C143.005 25.5689 144.853 23.7203 144.853 21.4399C144.853 19.1595 143.005 17.3109 140.725 17.3109C138.444 17.3109 136.596 19.1595 136.596 21.4399C136.596 23.7203 138.444 25.5689 140.725 25.5689Z" fill="#FFFF00"/>
<path d="M152.07 25.5689C154.35 25.5689 156.199 23.7203 156.199 21.4399C156.199 19.1595 154.35 17.3109 152.07 17.3109C149.79 17.3109 147.941 19.1595 147.941 21.4399C147.941 23.7203 149.79 25.5689 152.07 25.5689Z" fill="#69F0AE"/>
<path d="M495.226 55.9069H136.504V161.418H495.226V55.9069Z" fill="url(#paint7_linear)"/>
<path d="M491.709 60.1274H140.724V157.901H491.709V60.1274Z" fill="#63CDDA"/>
<path d="M221.613 202.216H197.698V222.615H221.613V202.216Z" fill="url(#paint8_linear)"/>
<path d="M221.261 203.623H198.753V220.505H221.261V203.623Z" fill="#6C63FF"/>
<path d="M221.261 232.463H198.753V249.344H221.261V232.463Z" fill="#FF5252"/>
<path d="M221.261 261.302H198.753V278.184H221.261V261.302Z" fill="#FF9800"/>
<path opacity="0.4" d="M440.011 207.14H258.54V216.988H440.011V207.14Z" fill="#6C63FF"/>
<path opacity="0.4" d="M440.011 235.98H258.54V245.827H440.011V235.98Z" fill="#6C63FF"/>
<path opacity="0.4" d="M440.011 264.819H258.54V274.667H440.011V264.819Z" fill="#6C63FF"/>
<path d="M386.906 256.378H256.078V364H386.906V256.378Z" fill="url(#paint9_linear)"/>
<path d="M286.267 239.265C286.267 229.548 290.127 220.229 296.997 213.358C303.868 206.487 313.186 202.627 322.902 202.627C332.619 202.627 341.937 206.487 348.807 213.358C355.678 220.229 359.538 229.548 359.538 239.265V262.709H369.793V239.265C369.869 233.058 368.712 226.898 366.39 221.142C364.068 215.387 360.626 210.149 356.264 205.733C351.902 201.318 346.707 197.812 340.981 195.419C335.254 193.026 329.109 191.794 322.902 191.794C316.696 191.794 310.551 193.026 304.824 195.419C299.097 197.812 293.903 201.318 289.541 205.733C285.179 210.149 281.737 215.387 279.415 221.142C277.093 226.898 275.936 233.058 276.012 239.265V262.709H286.267V239.265Z" fill="url(#paint10_linear)"/>
<path d="M287.73 238.793C287.73 229.465 291.435 220.52 298.031 213.924C304.626 207.328 313.572 203.623 322.899 203.623C332.226 203.623 341.172 207.328 347.767 213.924C354.362 220.52 358.068 229.465 358.068 238.793V261.302H367.915V238.793C367.915 226.854 363.172 215.403 354.73 206.961C346.288 198.518 334.838 193.775 322.899 193.775C310.96 193.775 299.51 198.518 291.068 206.961C282.626 215.403 277.883 226.854 277.883 238.793V261.302H287.73V238.793Z" fill="white"/>
<path d="M384.093 259.896H261.705V359.78H384.093V259.896Z" fill="#6C63FF"/>
<path d="M384.093 259.896H261.705V359.78H384.093V259.896Z" fill="white"/>
<path d="M384.093 279.591H261.705V340.084H384.093V279.591Z" fill="#63CDDA"/>
<path d="M331.881 298.414C331.888 296.946 331.535 295.498 330.852 294.198C330.169 292.898 329.177 291.785 327.964 290.958C326.751 290.13 325.353 289.613 323.894 289.451C322.434 289.289 320.957 289.489 319.593 290.031C318.228 290.573 317.017 291.442 316.066 292.561C315.115 293.68 314.454 295.015 314.139 296.45C313.825 297.884 313.867 299.374 314.263 300.788C314.658 302.203 315.394 303.499 316.407 304.562V323.709C316.407 325.44 317.095 327.1 318.319 328.325C319.543 329.549 321.203 330.236 322.934 330.236C324.665 330.236 326.326 329.549 327.55 328.325C328.774 327.1 329.462 325.44 329.462 323.709V304.562C331.024 302.897 331.89 300.697 331.881 298.414Z" fill="url(#paint11_linear)"/>
<path opacity="0.2" d="M330.636 299.99C330.638 298.726 330.331 297.481 329.741 296.364C329.152 295.246 328.297 294.291 327.253 293.58C326.208 292.869 325.005 292.424 323.75 292.285C322.494 292.146 321.223 292.317 320.048 292.783C318.874 293.248 317.831 293.994 317.011 294.956C316.192 295.917 315.62 297.065 315.346 298.299C315.072 299.532 315.104 300.814 315.44 302.032C315.776 303.25 316.405 304.368 317.272 305.286V321.795C317.272 323.288 317.865 324.719 318.92 325.775C319.975 326.83 321.407 327.423 322.899 327.423C324.391 327.423 325.823 326.83 326.878 325.775C327.933 324.719 328.526 323.288 328.526 321.795V305.286C329.878 303.854 330.633 301.96 330.636 299.99V299.99Z" fill="black"/>
</g>
<defs>
<linearGradient id="paint0_linear" x1="419.787" y1="316.07" x2="459.521" y2="54.5902" gradientUnits="userSpaceOnUse">
<stop stop-color="#808080" stop-opacity="0.25"/>
<stop offset="0.54" stop-color="#808080" stop-opacity="0.12"/>
<stop offset="1" stop-color="#808080" stop-opacity="0.1"/>
</linearGradient>
<linearGradient id="paint1_linear" x1="48407.5" y1="141349" x2="53952.5" y2="104858" gradientUnits="userSpaceOnUse">
<stop stop-color="#808080" stop-opacity="0.25"/>
<stop offset="0.54" stop-color="#808080" stop-opacity="0.12"/>
<stop offset="1" stop-color="#808080" stop-opacity="0.1"/>
</linearGradient>
<linearGradient id="paint2_linear" x1="9822.27" y1="12008.2" x2="9893.75" y2="11537.8" gradientUnits="userSpaceOnUse">
<stop stop-color="#808080" stop-opacity="0.25"/>
<stop offset="0.54" stop-color="#808080" stop-opacity="0.12"/>
<stop offset="1" stop-color="#808080" stop-opacity="0.1"/>
</linearGradient>
<linearGradient id="paint3_linear" x1="189760" y1="119073" x2="168752" y2="25095.9" gradientUnits="userSpaceOnUse">
<stop stop-color="#808080" stop-opacity="0.25"/>
<stop offset="0.54" stop-color="#808080" stop-opacity="0.12"/>
<stop offset="1" stop-color="#808080" stop-opacity="0.1"/>
</linearGradient>
<linearGradient id="paint4_linear" x1="140022" y1="5282.32" x2="137728" y2="-4976.95" gradientUnits="userSpaceOnUse">
<stop stop-color="#808080" stop-opacity="0.25"/>
<stop offset="0.54" stop-color="#808080" stop-opacity="0.12"/>
<stop offset="1" stop-color="#808080" stop-opacity="0.1"/>
</linearGradient>
<linearGradient id="paint5_linear" x1="7966.21" y1="6742.79" x2="7880.53" y2="6359.49" gradientUnits="userSpaceOnUse">
<stop stop-color="#808080" stop-opacity="0.25"/>
<stop offset="0.54" stop-color="#808080" stop-opacity="0.12"/>
<stop offset="1" stop-color="#808080" stop-opacity="0.1"/>
</linearGradient>
<linearGradient id="paint6_linear" x1="189602" y1="148338" x2="189602" y2="3354.13" gradientUnits="userSpaceOnUse">
<stop stop-color="#808080" stop-opacity="0.25"/>
<stop offset="0.54" stop-color="#808080" stop-opacity="0.12"/>
<stop offset="1" stop-color="#808080" stop-opacity="0.1"/>
</linearGradient>
<linearGradient id="paint7_linear" x1="161228" y1="24268.6" x2="161228" y2="8441.95" gradientUnits="userSpaceOnUse">
<stop stop-color="#808080" stop-opacity="0.25"/>
<stop offset="0.54" stop-color="#808080" stop-opacity="0.12"/>
<stop offset="1" stop-color="#808080" stop-opacity="0.1"/>
</linearGradient>
<linearGradient id="paint8_linear" x1="7325.98" y1="6658.04" x2="7325.98" y2="6066.48" gradientUnits="userSpaceOnUse">
<stop stop-color="#808080" stop-opacity="0.25"/>
<stop offset="0.54" stop-color="#808080" stop-opacity="0.12"/>
<stop offset="1" stop-color="#808080" stop-opacity="0.1"/>
</linearGradient>
<linearGradient id="paint9_linear" x1="60053.6" y1="55948.4" x2="60053.6" y2="39482.3" gradientUnits="userSpaceOnUse">
<stop stop-color="#808080" stop-opacity="0.25"/>
<stop offset="0.54" stop-color="#808080" stop-opacity="0.12"/>
<stop offset="1" stop-color="#808080" stop-opacity="0.1"/>
</linearGradient>
<linearGradient id="paint10_linear" x1="57602.2" y1="40240.5" x2="57602.2" y2="33148.9" gradientUnits="userSpaceOnUse">
<stop stop-color="#808080" stop-opacity="0.25"/>
<stop offset="0.54" stop-color="#808080" stop-opacity="0.12"/>
<stop offset="1" stop-color="#808080" stop-opacity="0.1"/>
</linearGradient>
<linearGradient id="paint11_linear" x1="11285.6" y1="27273.9" x2="11285.6" y2="24905.2" gradientUnits="userSpaceOnUse">
<stop stop-color="#808080" stop-opacity="0.25"/>
<stop offset="0.54" stop-color="#808080" stop-opacity="0.12"/>
<stop offset="1" stop-color="#808080" stop-opacity="0.1"/>
</linearGradient>
<clipPath id="clip0">
<rect width="630" height="364" fill="white"/>
</clipPath>
</defs>
</svg>
