<svg width="300" height="300" viewBox="0 0 300 300" fill="none" xmlns="http://www.w3.org/2000/svg">
<path d="M228.841 96.6451C218.261 96.6451 209.655 105.252 209.655 115.831C209.655 126.41 218.261 135.017 228.841 135.017C239.42 135.017 248.027 126.41 248.027 115.831C248.027 105.252 239.42 96.6451 228.841 96.6451ZM228.841 127.546C222.381 127.546 217.126 122.291 217.126 115.831C217.126 109.371 222.381 104.116 228.841 104.116C235.3 104.116 240.556 109.371 240.556 115.831C240.556 122.291 235.301 127.546 228.841 127.546Z" fill="black"/>
<path d="M228.841 121C231.696 121 234.011 118.686 234.011 115.831C234.011 112.976 231.696 110.662 228.841 110.662C225.987 110.662 223.672 112.976 223.672 115.831C223.672 118.686 225.987 121 228.841 121Z" fill="black"/>
<path d="M45.3631 220.668C34.7837 220.668 26.1772 229.275 26.1772 239.854C26.1772 250.433 34.7837 259.04 45.3631 259.04C55.9425 259.04 64.549 250.433 64.549 239.854C64.549 229.275 55.9425 220.668 45.3631 220.668ZM45.3631 251.569C38.9035 251.569 33.6481 246.314 33.6481 239.854C33.6481 233.394 38.9035 228.139 45.3631 228.139C51.8227 228.139 57.0781 233.394 57.0781 239.854C57.0781 246.314 51.8234 251.569 45.3631 251.569Z" fill="black"/>
<path d="M45.3631 245.023C48.218 245.023 50.5323 242.709 50.5323 239.854C50.5323 236.999 48.218 234.685 45.3631 234.685C42.5083 234.685 40.194 236.999 40.194 239.854C40.194 242.709 42.5083 245.023 45.3631 245.023Z" fill="black"/>
<path d="M98.5447 22.304C87.9653 22.304 79.3589 30.9104 79.3589 41.4898C79.3589 52.0692 87.9653 60.6757 98.5447 60.6757C109.124 60.6757 117.731 52.0692 117.731 41.4898C117.731 30.9104 109.124 22.304 98.5447 22.304ZM98.5447 53.2048C92.0852 53.2048 86.8298 47.9494 86.8298 41.4898C86.8298 35.0302 92.0852 29.7748 98.5447 29.7748C105.004 29.7748 110.26 35.0302 110.26 41.4898C110.26 47.9494 105.004 53.2048 98.5447 53.2048Z" fill="black"/>
<path d="M98.5448 46.6589C101.4 46.6589 103.714 44.3446 103.714 41.4898C103.714 38.6349 101.4 36.3206 98.5448 36.3206C95.6899 36.3206 93.3756 38.6349 93.3756 41.4898C93.3756 44.3446 95.6899 46.6589 98.5448 46.6589Z" fill="black"/>
<path d="M183.444 218.067H144.762C142.699 218.067 141.027 219.739 141.027 221.802C141.027 223.866 142.699 225.538 144.762 225.538H183.444C185.507 225.538 187.179 223.866 187.179 221.802C187.179 219.739 185.506 218.067 183.444 218.067Z" fill="black"/>
<path d="M183.444 236.602H144.762C142.699 236.602 141.027 238.274 141.027 240.337C141.027 242.4 142.699 244.072 144.762 244.072H183.444C185.507 244.072 187.179 242.4 187.179 240.337C187.179 238.274 185.506 236.602 183.444 236.602Z" fill="black"/>
<path d="M183.444 255.137H144.762C142.699 255.137 141.027 256.809 141.027 258.872C141.027 260.936 142.699 262.608 144.762 262.608H183.444C185.507 262.608 187.179 260.936 187.179 258.872C187.179 256.809 185.506 255.137 183.444 255.137Z" fill="black"/>
<path d="M289.984 85.0993H257.289V60.8386C257.289 59.8477 256.895 58.8976 256.195 58.1974L202.79 4.80038C202.09 4.10016 201.139 3.70624 200.149 3.70624H65.7871C63.7237 3.70624 62.0516 5.37835 62.0516 7.44167V183.414H3.73543C1.67212 183.414 0 185.087 0 187.15V292.558C0 294.621 1.67212 296.293 3.73543 296.293H212.454C214.518 296.293 216.19 294.621 216.19 292.558V267.443H253.554C255.617 267.443 257.289 265.771 257.289 263.707V146.563H289.984C295.507 146.563 300 142.07 300 136.547V95.1163C300 89.5926 295.507 85.0993 289.984 85.0993ZM203.885 16.459L244.535 57.1032H203.885V16.459ZM208.719 288.823H7.47086V190.885H208.719V288.823ZM249.818 259.972H216.19V187.15C216.19 185.087 214.518 183.414 212.454 183.414H69.5225V11.1771H196.414V60.8386C196.414 62.902 198.086 64.5741 200.149 64.5741H249.818V85.0993H208.259C202.736 85.0993 198.243 89.5926 198.243 95.1156V136.546C198.243 142.069 202.736 146.563 208.259 146.563H249.818V259.972V259.972ZM292.529 136.547C292.529 137.951 291.387 139.093 289.984 139.093H208.259C206.855 139.093 205.714 137.951 205.714 136.547V95.1163C205.714 93.7125 206.855 92.5708 208.259 92.5708H289.984C291.387 92.5708 292.529 93.7125 292.529 95.1163V136.547Z" fill="black"/>
<path d="M280.147 105.649H255.971C253.907 105.649 252.235 107.321 252.235 109.384C252.235 111.448 253.907 113.12 255.971 113.12H280.147C282.21 113.12 283.883 111.448 283.883 109.384C283.883 107.321 282.21 105.649 280.147 105.649Z" fill="black"/>
<path d="M280.147 118.542H255.971C253.907 118.542 252.235 120.214 252.235 122.278C252.235 124.341 253.907 126.013 255.971 126.013H280.147C282.21 126.013 283.883 124.341 283.883 122.278C283.883 120.214 282.21 118.542 280.147 118.542Z" fill="black"/>
<path d="M37.3985 176.89C37.8522 178.499 39.3212 179.611 40.9933 179.611C42.6654 179.611 44.1345 178.499 44.5882 176.89L51.3799 152.802C51.4729 152.472 51.5204 152.131 51.5204 151.788V25.1008C51.5204 23.0375 49.8483 21.3654 47.785 21.3654H34.2016C32.1383 21.3654 30.4662 23.0375 30.4662 25.1008V151.789C30.4662 152.132 30.513 152.473 30.6068 152.803L37.3985 176.89ZM39.1365 155.524H42.8508L40.9933 162.112L39.1365 155.524ZM44.0496 28.8362V148.054H37.9371V28.8362H44.0496Z" fill="black"/>
<path d="M3.73543 179.612H17.3188C19.3821 179.612 21.0543 177.94 21.0543 175.876V49.1882C21.0543 48.8452 21.0074 48.5043 20.9137 48.1742L14.122 24.0868C13.6683 22.4772 12.1992 21.3654 10.5271 21.3654C8.85501 21.3654 7.38597 22.4772 6.93228 24.0868L0.140588 48.1742C0.0468627 48.5043 0 48.8452 0 49.1882V175.876C0 177.939 1.67212 179.612 3.73543 179.612ZM7.47086 172.141V52.9236H13.5834V172.141H7.47086ZM12.3847 45.4528H8.6696L10.5271 38.8655L12.3847 45.4528Z" fill="black"/>
</svg>
