<svg width="300" height="300" viewBox="0 0 300 300" fill="none" xmlns="http://www.w3.org/2000/svg">
<path d="M150 0C147.633 0 145.715 1.91836 145.715 4.28495V26.816C145.715 29.182 147.633 31.1003 150 31.1003C152.366 31.1003 154.285 29.182 154.285 26.8154V4.28495C154.285 1.91836 152.366 0 150 0Z" fill="black"/>
<path d="M285.757 135.757H263.226C260.86 135.757 258.941 137.674 258.941 140.042C258.941 142.408 260.859 144.327 263.226 144.327H285.757C288.124 144.327 290.042 142.408 290.042 140.042C290.041 137.675 288.124 135.757 285.757 135.757Z" fill="black"/>
<path d="M36.7734 135.757H14.243C11.8764 135.757 9.95801 137.674 9.95801 140.042C9.95801 142.408 11.8764 144.327 14.243 144.327H36.7734C39.14 144.327 41.0583 142.408 41.0583 140.042C41.0583 137.675 39.14 135.757 36.7734 135.757Z" fill="black"/>
<path d="M249.024 233.006L233.092 217.075C231.419 215.402 228.706 215.402 227.033 217.075C225.36 218.749 225.36 221.461 227.033 223.134L242.966 239.066C243.802 239.902 244.899 240.321 245.995 240.321C247.091 240.321 248.188 239.902 249.025 239.066C250.698 237.393 250.698 234.68 249.024 233.006Z" fill="black"/>
<path d="M72.9673 56.9484L57.0351 41.0167C55.3616 39.3439 52.6487 39.3433 50.9759 41.0173C49.3025 42.6908 49.3025 45.4031 50.9759 47.0765L66.9075 63.0081C67.7442 63.8442 68.8405 64.2626 69.9374 64.2626C71.0343 64.2626 72.1305 63.8442 72.9673 63.0075C74.6407 61.3341 74.6407 58.6218 72.9673 56.9484Z" fill="black"/>
<path d="M249.024 41.0174C247.351 39.3445 244.638 39.3439 242.965 41.0168L227.033 56.9484C225.359 58.6218 225.359 61.3347 227.032 63.0076C227.869 63.8443 228.965 64.2627 230.062 64.2627C231.158 64.2627 232.255 63.8443 233.091 63.0082L249.024 47.0766C250.697 45.4031 250.697 42.6902 249.024 41.0174Z" fill="black"/>
<path d="M72.9672 217.075C71.2938 215.401 68.5809 215.402 66.9075 217.075L50.9753 233.006C49.3019 234.68 49.3019 237.393 50.9753 239.065C51.812 239.902 52.9083 240.321 54.0052 240.321C55.1015 240.321 56.1983 239.902 57.035 239.066L72.9672 223.134C74.6407 221.461 74.6407 218.748 72.9672 217.075Z" fill="black"/>
<path d="M228.741 117.282C228.293 114.958 226.052 113.437 223.722 113.887C221.398 114.335 219.878 116.583 220.327 118.906C221.19 123.376 221.627 127.973 221.627 132.567C221.627 148.303 216.621 163.234 207.151 175.746C192.723 194.804 184.393 217.07 183.016 240.213H180.01H119.989H116.984C116.585 233.305 115.583 226.427 114.001 219.751C112.999 215.52 111.749 211.311 110.285 207.243C108.58 202.501 106.546 197.844 104.241 193.402C101.144 187.435 97.4992 181.739 93.4064 176.473C83.4924 163.716 78.2939 148.41 78.373 132.208C78.4645 113.592 85.9902 95.8468 99.5646 82.242C113.14 68.6371 130.867 61.0721 149.482 60.9408C174.666 60.7797 197.627 73.4447 210.914 94.863C212.161 96.874 214.802 97.4921 216.813 96.2447C218.824 94.9972 219.443 92.3558 218.195 90.3449C211.08 78.8758 201.11 69.3092 189.364 62.6799C177.403 55.9293 163.801 52.3698 149.988 52.3698C149.8 52.3698 149.61 52.3703 149.422 52.3715C128.537 52.5192 108.677 60.9777 93.4984 76.1892C78.3203 91.4007 69.9057 111.281 69.8037 132.165C69.7153 150.305 75.5371 167.445 86.64 181.731C90.4146 186.588 93.7773 191.843 96.6349 197.349C98.7648 201.454 100.645 205.759 102.222 210.144C103.577 213.909 104.735 217.807 105.663 221.726C107.22 228.298 108.171 235.083 108.491 241.891C108.672 245.75 111.839 248.773 115.704 248.783V281.388C115.704 291.651 124.053 300 134.316 300H165.683C175.946 300 184.295 291.651 184.295 281.388V248.783C188.154 248.773 191.321 245.752 191.508 241.894C192.568 220.028 200.34 198.943 213.983 180.918C224.59 166.906 230.197 150.187 230.197 132.567C230.197 127.429 229.707 122.286 228.741 117.282ZM165.683 291.43H134.316C129.245 291.43 125.051 287.648 124.378 282.76H175.62C174.948 287.648 170.754 291.43 165.683 291.43ZM175.726 255.213H158.377C156.01 255.213 154.092 257.131 154.092 259.498C154.092 261.864 156.01 263.783 158.377 263.783H175.726V274.191H124.274V263.783H131.526C133.892 263.783 135.811 261.865 135.811 259.498C135.811 257.131 133.892 255.213 131.526 255.213H124.274V248.783H175.726V255.213Z" fill="black"/>
<path d="M154.79 142.09L154.406 141.948V117.068L155.033 117.113C160.187 117.481 163.361 119.07 165.679 120.229C167.049 120.916 168.132 121.457 169.085 121.457C172.093 121.457 173.667 117.48 173.667 115.349C173.667 112.446 170.27 110.621 167.42 109.602C164.067 108.402 159.414 107.608 154.974 107.478L154.405 107.461V103.721C154.405 102.673 152.923 101.605 151.468 101.605C149.726 101.605 148.648 102.704 148.648 103.721V107.654L148.123 107.709C141.571 108.399 126.333 111.852 126.333 128.972C126.333 143.643 137.98 147.786 148.258 151.441L148.647 151.579V180.226L148.016 180.177C140.325 179.574 136.209 176.072 133.203 173.515C131.563 172.12 130.268 171.018 129.035 171.018C126.554 171.018 124.219 174.459 124.219 177.127C124.219 182.381 133.51 190.164 148.071 190.399L148.648 190.409V194.626C148.648 195.643 149.726 196.741 151.468 196.741C152.923 196.741 154.405 195.673 154.405 194.626V190.123L154.91 190.053C168.174 188.21 175.781 179.604 175.781 166.439C175.781 151.094 165.411 145.996 154.79 142.09ZM149.352 140.155L148.559 139.856C142.183 137.45 136.905 134.883 136.905 127.798C136.905 121.927 140.982 118.315 148.694 117.351L149.352 117.268V140.155V140.155ZM154.393 179.934L153.7 180.062V153.688L154.517 154.038C160.07 156.417 165.208 159.723 165.208 167.731C165.208 174.309 161.367 178.643 154.393 179.934Z" fill="black"/>
</svg>
