<svg width="42" height="42" viewBox="0 0 42 42" fill="none" xmlns="http://www.w3.org/2000/svg">
<path fill-rule="evenodd" clip-rule="evenodd" d="M4.8623 0.848199C3.81916 -0.190152 2.12789 -0.190151 1.08475 0.848199C0.0416073 1.88655 0.041607 3.57005 1.08475 4.6084L17.2343 20.6838L0.855596 36.9717C-0.188042 38.0095 -0.188042 39.6922 0.855596 40.7301C1.89923 41.7679 3.59131 41.7679 4.63495 40.7301L21.0118 24.444L36.9715 40.3303C38.0146 41.3686 39.7059 41.3686 40.749 40.3303C41.7922 39.292 41.7922 37.6084 40.749 36.5701L24.7912 20.6856L40.5388 5.02535C41.5824 3.9875 41.5824 2.30481 40.5388 1.26696C39.4951 0.229106 37.8031 0.229106 36.7594 1.26696L21.0137 16.9254L4.8623 0.848199Z" fill="black"/>
</svg>
