<svg width="300" height="300" viewBox="0 0 300 300" fill="none" xmlns="http://www.w3.org/2000/svg">
<path d="M20.4855 232.434C19.3382 229.922 18.7464 227.192 18.7503 224.431V218.723C18.7384 169.912 26.4411 121.406 41.5732 75H144.219C139.912 88.5258 136.183 102.347 133.115 116.172L142.268 118.203C145.49 103.678 149.465 89.1636 154.077 75H164.063C169.034 74.9944 173.8 73.0172 177.315 69.5021C180.83 65.987 182.807 61.2211 182.813 56.25V42.1875C182.813 41.5719 182.692 40.9624 182.456 40.3937C182.22 39.8249 181.875 39.3082 181.44 38.8729C181.005 38.4376 180.488 38.0923 179.919 37.8568C179.35 37.6212 178.741 37.5 178.125 37.5H154.688C154.693 32.5289 156.671 27.763 160.186 24.2479C163.701 20.7328 168.467 18.7556 173.438 18.75H174.286C178.398 18.7568 182.394 20.1119 185.661 22.6076C188.928 25.1032 191.287 28.6016 192.375 32.5665L199.273 57.8588C200.909 63.8563 202.446 69.9766 203.842 76.0497L212.979 73.9503C211.555 67.7547 209.987 61.5108 208.318 55.392L201.42 30.0997C199.788 24.1525 196.249 18.9049 191.348 15.1615C186.447 11.418 180.454 9.38532 174.286 9.375H46.8753C39.4186 9.38343 32.2698 12.3493 26.9972 17.6219C21.7246 22.8946 18.7587 30.0434 18.7503 37.5V56.25C18.7553 60.2582 20.0424 64.1597 22.4235 67.3841C24.8045 70.6085 28.1546 72.9866 31.9839 74.1708C16.9892 120.889 9.3616 169.658 9.37527 218.723V224.431C9.36934 228.532 10.2485 232.587 11.9528 236.317L20.4855 232.434ZM173.438 46.875V56.25C173.438 58.7364 172.45 61.121 170.692 62.8791C168.934 64.6373 166.549 65.625 164.063 65.625C161.576 65.625 159.192 64.6373 157.434 62.8791C155.675 61.121 154.688 58.7364 154.688 56.25V46.875H173.438ZM28.1253 56.25V37.5C28.1309 32.5289 30.1081 27.763 33.6232 24.2479C37.1383 20.7328 41.9042 18.7556 46.8753 18.75H152.492C147.864 23.8983 145.307 30.5777 145.313 37.5V56.25C145.309 59.5424 146.177 62.7771 147.829 65.625H37.5003C35.0147 65.6222 32.6318 64.6335 30.8743 62.876C29.1167 61.1184 28.1281 58.7355 28.1253 56.25V56.25Z" fill="#303030"/>
<path d="M244.817 133.882L242.683 143.011C271.149 149.667 281.25 158.511 281.25 164.062C281.25 168.835 274.476 174.373 261.952 179.267C259.763 172.295 250.958 166.53 235.681 162.098L233.069 171.101C246.088 174.879 252.406 179.439 253.064 182.324C234.44 187.991 207.244 192.187 173.438 192.187C139.63 192.187 112.433 187.99 93.8085 182.323C94.7454 177.899 108.114 170.382 136.578 166.456L135.297 157.169C121.016 159.139 108.879 162.195 100.198 166.006C91.6449 169.761 86.5284 174.21 84.9248 179.267C72.3993 174.374 65.625 168.835 65.625 164.062C65.625 162.086 67.2355 155.066 87.959 147.692C103.745 142.075 125.881 138.15 150.289 136.642L149.711 127.284C124.452 128.846 101.406 132.956 84.8162 138.859C61.2059 147.261 56.25 157.202 56.25 164.062C56.2428 173.938 58.0795 183.729 61.6657 192.93L71.1519 217.324L79.8895 213.926L70.4032 189.532C69.3324 186.777 68.4361 183.957 67.7196 181.088C73.7313 185.106 82.0526 188.695 92.5756 191.764C114.239 198.083 142.956 201.562 173.438 201.562C203.919 201.562 232.636 198.083 254.299 191.764C264.822 188.695 273.144 185.106 279.155 181.088C278.439 183.957 277.543 186.777 276.472 189.532L260.378 230.916C258.854 234.84 256.751 238.513 254.138 241.813L261.487 247.633C264.681 243.599 267.253 239.109 269.116 234.313L285.209 192.93C288.796 183.729 290.632 173.938 290.625 164.062C290.625 147.122 261.925 137.882 244.817 133.882Z" fill="#303030"/>
<path d="M207.606 97.6012C184.582 105.975 165.624 122.826 154.608 144.71L141.12 171.681L149.505 175.874L162.994 148.902C172.353 130.311 188.089 115.707 207.325 107.758C207.56 108.671 207.864 109.564 208.234 110.431C195.304 121.317 183.685 136.156 175.258 152.636L161.459 179.443L169.795 183.733L183.6 156.915C191.421 141.619 202.132 127.887 214.02 117.817C214.545 118.213 215.089 118.582 215.653 118.92C216.277 119.292 216.923 119.626 217.586 119.92C215.71 123.435 213.753 127.091 211.716 130.889C206.604 140.432 201.337 150.324 195.915 160.566L185.285 180.617L193.569 185.008L204.205 164.944C209.598 154.696 214.856 144.82 219.98 135.317C222.403 130.794 224.733 126.445 226.93 122.323C227.887 138.382 224.297 154.386 216.572 168.498L209.99 180.568L218.22 185.057L224.802 172.988C234.003 156.186 237.906 136.994 235.999 117.933C237.907 116.533 239.522 114.773 240.756 112.753L278.066 51.7001C280.602 47.5467 281.385 42.556 280.242 37.8254C279.1 33.0947 276.125 29.0116 271.972 26.4739C267.82 23.9362 262.829 23.1517 258.098 24.2929C253.367 25.4342 249.283 28.4077 246.744 32.5596L209.435 93.6124C208.669 94.8647 208.055 96.2037 207.606 97.6012V97.6012ZM217.434 98.5007L254.744 37.4482C255.358 36.4412 256.165 35.5651 257.118 34.87C258.071 34.1749 259.152 33.6744 260.299 33.3972C261.445 33.1199 262.635 33.0713 263.801 33.2542C264.966 33.4371 266.084 33.8478 267.09 34.463C268.097 35.0781 268.972 35.8855 269.667 36.8392C270.361 37.7928 270.861 38.8739 271.137 40.0207C271.414 41.1676 271.461 42.3576 271.277 43.5228C271.094 44.6881 270.682 45.8057 270.066 46.8118L232.756 107.864C232.142 108.871 231.335 109.747 230.382 110.443C229.429 111.138 228.348 111.638 227.202 111.915C226.055 112.193 224.865 112.241 223.7 112.058C222.534 111.875 221.416 111.465 220.41 110.85C219.403 110.234 218.528 109.427 217.833 108.473C217.139 107.52 216.639 106.439 216.363 105.292C216.087 104.145 216.039 102.955 216.223 101.79C216.407 100.624 216.818 99.5068 217.434 98.5007V98.5007Z" fill="#303030"/>
<path d="M242.732 244.872C240.932 243.231 238.81 241.982 236.501 241.204C234.193 240.426 231.748 240.137 229.322 240.353L224.895 240.756C221.968 235.947 217.853 231.972 212.946 229.213C208.039 226.454 202.505 225.003 196.875 225H60.9376C55.3061 225.002 49.7696 226.452 44.8604 229.211C39.9512 231.97 35.8343 235.946 32.9054 240.756L28.4919 240.355C26.1323 240.14 23.7537 240.406 21.4998 241.137C19.2459 241.867 17.1635 243.047 15.3783 244.605C13.5932 246.163 12.1424 248.066 11.1136 250.201C10.0848 252.335 9.4993 254.656 9.39256 257.022C9.28581 259.389 9.66 261.753 10.4925 263.972C11.325 266.19 12.5986 268.216 14.2363 269.929C15.8739 271.641 17.8417 273.003 20.0207 273.934C22.1997 274.864 24.5447 275.343 26.9141 275.342C27.4385 275.342 27.9655 275.318 28.4916 275.27L32.905 274.869C35.848 279.666 39.968 283.632 44.8741 286.389C49.7803 289.147 55.3097 290.605 60.9376 290.625H196.875C201.186 290.638 205.456 289.795 209.438 288.146C213.42 286.496 217.036 284.073 220.075 281.016C221.926 279.167 223.551 277.104 224.915 274.871L229.328 275.272C229.856 275.32 230.393 275.344 230.924 275.344C234.457 275.34 237.907 274.27 240.82 272.272C243.734 270.274 245.977 267.442 247.253 264.148C248.53 260.853 248.781 257.25 247.974 253.81C247.168 250.371 245.34 247.255 242.732 244.872V244.872ZM27.6428 265.934C26.5464 266.033 25.4413 265.909 24.394 265.57C23.3466 265.231 22.3788 264.683 21.5488 263.96C20.7189 263.237 20.0439 262.353 19.5646 261.362C19.0853 260.371 18.8116 259.293 18.7601 258.194C18.7085 257.094 18.8801 255.995 19.2645 254.964C19.649 253.932 20.2383 252.989 20.9969 252.192C21.7556 251.394 22.6679 250.758 23.6789 250.322C24.6899 249.887 25.7786 249.66 26.8794 249.657C27.1323 249.657 27.3869 249.668 27.643 249.691L55.8642 252.257C57.2505 252.383 58.5397 253.023 59.4784 254.051C60.4171 255.079 60.9376 256.42 60.9376 257.813C60.9376 259.205 60.4171 260.546 59.4784 261.574C58.5397 262.602 57.2505 263.242 55.8642 263.368H55.8645L27.6428 265.934ZM43.8973 273.87L56.713 272.705H56.7133C60.4295 272.367 63.885 270.652 66.4012 267.896C68.9174 265.141 70.3125 261.544 70.3125 257.812C70.3124 254.081 68.9173 250.484 66.401 247.729C63.8847 244.973 60.4292 243.258 56.713 242.92L43.873 241.753C44.0361 241.58 44.1987 241.407 44.3674 241.239C47.0931 238.514 50.4486 236.503 54.1369 235.384C57.8252 234.266 61.7324 234.074 65.5125 234.827C69.2925 235.579 72.8287 237.252 75.8078 239.697C78.7869 242.142 81.117 245.285 82.5917 248.845C84.0664 252.406 84.6401 256.276 84.2622 260.111C83.8842 263.947 82.5661 267.63 80.4247 270.835C78.2833 274.039 75.3847 276.666 71.9856 278.483C68.5865 280.3 64.7918 281.25 60.9376 281.25C57.7455 281.238 54.5891 280.578 51.6599 279.309C48.7307 278.04 46.0897 276.19 43.8973 273.87V273.87ZM213.445 274.386C211.275 276.57 208.693 278.301 205.848 279.479C203.004 280.658 199.954 281.259 196.875 281.25H83.8702C86.9973 278.2 89.4824 274.555 91.1792 270.53C92.876 266.505 93.7501 262.181 93.7501 257.813C93.7501 253.444 92.876 249.12 91.1792 245.095C89.4824 241.07 86.9973 237.425 83.8702 234.375H196.875C201.511 234.375 206.043 235.749 209.897 238.325C213.751 240.9 216.755 244.561 218.529 248.844C220.303 253.127 220.767 257.84 219.862 262.386C218.957 266.933 216.724 271.109 213.445 274.386V274.386ZM230.924 265.969C230.671 265.969 230.416 265.957 230.171 265.935L228.713 265.803C230.017 260.555 230.012 255.068 228.699 249.823L230.168 249.69C231.265 249.59 232.371 249.714 233.419 250.053C234.467 250.392 235.435 250.94 236.265 251.664C237.096 252.388 237.771 253.272 238.25 254.264C238.729 255.256 239.003 256.334 239.054 257.434C239.105 258.535 238.933 259.634 238.547 260.666C238.162 261.698 237.572 262.641 236.812 263.438C236.052 264.236 235.139 264.871 234.127 265.306C233.115 265.741 232.025 265.966 230.924 265.969L230.924 265.969Z" fill="#303030"/>
</svg>
