<svg width="606" height="564" viewBox="0 0 606 564" fill="none" xmlns="http://www.w3.org/2000/svg">
<g clip-path="url(#clip0)">
<path d="M303 564C470.342 564 606 557.871 606 550.311C606 542.751 470.342 536.622 303 536.622C135.658 536.622 0 542.751 0 550.311C0 557.871 135.658 564 303 564Z" fill="#E6E6E6"/>
<path d="M325.228 131.526H322.189V48.2172C322.189 41.8852 320.943 35.6152 318.522 29.7652C316.101 23.9152 312.552 18.5998 308.078 14.1224C303.605 9.64505 298.294 6.0934 292.448 3.67027C286.603 1.24714 280.338 -2.19712e-05 274.012 2.90307e-10H97.6541C91.3272 -1.99738e-05 85.0624 1.24714 79.2172 3.67028C73.372 6.09341 68.0609 9.64506 63.5872 14.1224C59.1134 18.5998 55.5647 23.9152 53.1435 29.7652C50.7223 35.6152 49.4762 41.8852 49.4762 48.2172V505.258C49.4762 511.59 50.7223 517.86 53.1435 523.71C55.5647 529.56 59.1134 534.876 63.5872 539.353C68.0609 543.83 73.372 547.382 79.2172 549.805C85.0624 552.228 91.3272 553.475 97.6541 553.475H274.012C280.338 553.475 286.603 552.228 292.448 549.805C298.294 547.382 303.605 543.83 308.078 539.353C312.552 534.876 316.101 529.56 318.522 523.71C320.943 517.86 322.189 511.59 322.189 505.258V190.827H325.228V131.526Z" fill="#3F3D56"/>
<path d="M275.956 12.5444H252.935C253.994 15.142 254.398 17.9603 254.112 20.751C253.826 23.5418 252.858 26.2193 251.295 28.5477C249.731 30.8761 247.62 32.7839 245.146 34.1032C242.672 35.4224 239.912 36.1125 237.109 36.1127H136.076C133.273 36.1125 130.513 35.4224 128.039 34.1032C125.565 32.7839 123.454 30.8761 121.89 28.5477C120.326 26.2193 119.359 23.5418 119.073 20.751C118.787 17.9603 119.191 15.142 120.25 12.5444H98.7486C94.0239 12.5444 89.3453 13.4758 84.9802 15.2853C80.6151 17.0949 76.6488 19.7472 73.3079 23.0909C69.967 26.4345 67.3168 30.404 65.5087 34.7727C63.7006 39.1414 62.77 43.8237 62.77 48.5524V504.923C62.77 509.652 63.7006 514.334 65.5087 518.703C67.3168 523.071 69.967 527.041 73.3079 530.384C76.6488 533.728 80.6151 536.38 84.9802 538.19C89.3453 540 94.0239 540.931 98.7486 540.931H275.956C280.68 540.931 285.359 540 289.724 538.19C294.089 536.38 298.055 533.728 301.396 530.384C304.737 527.041 307.387 523.071 309.195 518.703C311.004 514.334 311.934 509.652 311.934 504.923V48.5524C311.934 43.8238 311.004 39.1414 309.195 34.7727C307.387 30.404 304.737 26.4346 301.396 23.0909C298.055 19.7473 294.089 17.0949 289.724 15.2854C285.359 13.4758 280.68 12.5444 275.956 12.5444Z" fill="white"/>
<path d="M211.989 135.144H149.178V140.982H211.989V135.144Z" fill="#63CDDA"/>
<path d="M258.653 155.339H149.178V161.176H258.653V155.339Z" fill="#E6E6E6"/>
<path d="M258.545 175.533H149.178V181.371H258.545V175.533Z" fill="#E6E6E6"/>
<path d="M136.161 135.231H89.497V181.933H136.161V135.231Z" fill="#63CDDA"/>
<path d="M211.989 257.736H149.178V263.574H211.989V257.736Z" fill="#63CDDA"/>
<path d="M258.653 277.931H149.178V283.769H258.653V277.931Z" fill="#E6E6E6"/>
<path d="M258.545 298.126H149.178V303.963H258.545V298.126Z" fill="#E6E6E6"/>
<path d="M136.161 257.823H89.497V304.525H136.161V257.823Z" fill="#63CDDA"/>
<path d="M211.989 380.329H149.178V386.166H211.989V380.329Z" fill="#63CDDA"/>
<path d="M258.653 400.523H149.178V406.361H258.653V400.523Z" fill="#E6E6E6"/>
<path d="M258.545 420.718H149.178V426.555H258.545V420.718Z" fill="#E6E6E6"/>
<path d="M136.161 380.415H89.497V427.117H136.161V380.415Z" fill="#63CDDA"/>
<path d="M500.75 251.491C513.529 251.491 523.888 241.123 523.888 228.334C523.888 215.545 513.529 205.177 500.75 205.177C487.972 205.177 477.612 215.545 477.612 228.334C477.612 241.123 487.972 251.491 500.75 251.491Z" fill="#92694C"/>
<path d="M512.933 243.75C512.933 243.75 512.584 258.044 513.978 258.393C515.371 258.742 494.818 264.32 494.818 264.32L492.728 244.796L512.933 243.75Z" fill="#FFB8B8"/>
<path d="M350.602 365.773C350.602 365.773 335.274 365.773 334.926 364.029C334.577 362.286 331.442 378.323 331.442 378.323L337.713 380.415C337.713 380.415 349.556 375.186 350.602 375.186C351.647 375.186 350.602 365.773 350.602 365.773Z" fill="#FFB8B8"/>
<path d="M333.881 372.048C333.881 372.048 336.668 362.635 340.151 362.286C340.151 362.286 328.307 354.616 327.959 352.176C327.61 349.735 323.43 343.46 321.689 345.552C319.947 347.644 319.947 380.764 323.082 384.25C326.217 387.737 340.151 379.35 340.151 379.35C340.151 379.35 331.442 375.534 333.881 372.048Z" fill="#2F2E41"/>
<path d="M523.035 505.575L525.821 520.566L512.932 522.658V505.575H523.035Z" fill="#FFB8B8"/>
<path d="M523.035 518.823C523.035 518.823 525.125 512.199 526.518 513.245C527.912 514.291 530.002 520.915 529.653 522.658C529.305 524.402 526.867 537.998 527.912 540.439C528.957 542.879 522.686 555.43 514.674 554.384C506.662 553.338 507.359 546.365 507.359 546.365L510.146 535.558L511.191 518.475C511.191 518.475 520.248 517.08 523.035 518.823Z" fill="#2F2E41"/>
<path d="M508.844 213.544C514.132 213.544 518.419 209.254 518.419 203.961C518.419 198.669 514.132 194.379 508.844 194.379C503.557 194.379 499.27 198.669 499.27 203.961C499.27 209.254 503.557 213.544 508.844 213.544Z" fill="#92694C"/>
<path d="M521.61 198.771C521.61 196.403 520.733 194.118 519.15 192.358C517.566 190.598 515.387 189.488 513.033 189.241C513.364 189.206 513.697 189.189 514.03 189.189C516.57 189.189 519.005 190.199 520.8 191.996C522.596 193.793 523.605 196.23 523.605 198.771C523.605 201.313 522.596 203.75 520.8 205.547C519.005 207.344 516.57 208.353 514.03 208.353C513.697 208.353 513.364 208.336 513.033 208.302C515.387 208.055 517.566 206.944 519.15 205.184C520.733 203.424 521.61 201.14 521.61 198.771Z" fill="#92694C"/>
<path d="M500.74 253.512C508.821 253.512 515.371 246.956 515.371 238.87C515.371 230.783 508.821 224.227 500.74 224.227C492.66 224.227 486.11 230.783 486.11 238.87C486.11 246.956 492.66 253.512 500.74 253.512Z" fill="#FFB8B8"/>
<path d="M529.653 340.671C529.653 340.671 528.957 358.103 526.17 367.167C523.383 376.232 513.336 440.787 515.426 445.668C517.516 450.549 528.26 504.529 525.821 507.667C523.383 510.805 511.887 509.759 511.887 509.759L496.267 444.273C496.267 444.273 499.347 372.048 473.569 370.305C447.791 368.562 405.641 367.516 405.641 367.516C405.641 367.516 378.47 375.534 366.277 375.186C354.085 374.837 347.118 378.323 347.118 378.323L345.028 364.029L399.022 352.176C399.022 352.176 448.488 335.093 475.659 339.625C502.83 344.157 529.653 340.671 529.653 340.671Z" fill="#2F2E41"/>
<path d="M510.146 253.861C510.146 253.861 514.326 251.42 515.371 253.861C516.416 256.301 523.731 258.393 526.518 256.301C529.305 254.209 536.272 256.999 536.272 256.999L543.936 279.66C543.936 279.66 540.104 299.183 536.62 309.991C533.137 320.799 531.743 343.111 533.137 345.203C534.53 347.295 505.269 355.662 490.987 350.433C476.704 345.203 473.569 339.276 473.569 339.276C473.569 339.276 489.245 316.964 484.02 306.505C478.794 296.046 482.974 284.192 482.974 284.192L480.884 272.338L492.728 265.714C492.728 265.714 493.425 259.439 496.212 259.439C498.999 259.439 510.146 253.861 510.146 253.861Z" fill="#D0CDE1"/>
<path d="M486.11 272.687H480.884C479.435 274.045 478.355 275.749 477.745 277.64C477.136 279.531 477.017 281.546 477.401 283.495C478.794 290.119 485.078 312.08 485.078 312.08L490.29 298.486L486.11 272.687Z" fill="#D0CDE1"/>
<path d="M471.105 328.676C471.105 328.676 460.68 339.974 468.344 345.9C476.008 351.827 477.896 332.304 477.896 332.304L471.105 328.676Z" fill="#FFB8B8"/>
<path d="M486.11 305.11L483.671 314.872L479.491 322.542C479.491 322.542 465.209 331.955 465.209 335.441C465.209 335.441 471.479 327.423 479.491 335.441L486.632 318.184L486.11 305.11Z" fill="#D0CDE1"/>
<path d="M498.059 233.006C506.872 233.006 514.016 228.716 514.016 223.424C514.016 218.132 506.872 213.842 498.059 213.842C489.246 213.842 482.102 218.132 482.102 223.424C482.102 228.716 489.246 233.006 498.059 233.006Z" fill="#92694C"/>
<path d="M529.653 224.227C529.653 224.227 518.506 217.951 513.978 222.484C509.449 227.016 527.563 233.989 527.563 233.989L529.653 224.227Z" fill="#FFB8B8"/>
<path d="M533.834 258.742L536.272 256.999C536.272 256.999 539.059 252.815 541.497 254.209C543.936 255.604 558.218 248.98 558.218 248.98C558.218 248.98 552.993 251.42 552.993 247.237C552.993 243.053 552.296 243.75 548.813 243.75C545.329 243.75 545.329 245.494 543.936 243.053C542.542 240.613 543.239 239.218 540.801 240.613C538.362 242.007 535.575 240.961 534.879 239.915C534.182 238.87 521.641 237.126 521.641 237.126C521.641 237.126 526.518 222.832 527.563 221.786C528.608 220.74 555.431 232.594 555.431 232.594C555.431 232.594 589.221 242.007 580.512 252.815C571.804 263.623 540.452 280.008 540.452 280.008L533.834 258.742Z" fill="#D0CDE1"/>
</g>
<defs>
<clipPath id="clip0">
<rect width="606" height="564" fill="white"/>
</clipPath>
</defs>
</svg>
