<svg width="87" height="91" viewBox="0 0 87 91" fill="none" xmlns="http://www.w3.org/2000/svg">
<path d="M38.6562 25.7031C40.3438 24.2656 41.6406 22.5 42.5469 20.4062C43.4844 18.2812 43.9531 15.8906 43.9531 13.2344C43.9531 11.7969 43.7656 10.4375 43.3906 9.15625C43.0469 7.875 42.5156 6.76562 41.7969 5.82812C41.1094 4.85937 40.25 4.09375 39.2188 3.53125C38.2188 2.96875 37.0781 2.6875 35.7969 2.6875C34.7031 2.6875 33.6562 2.9375 32.6562 3.4375C31.6875 3.90625 30.8281 4.625 30.0781 5.59375C29.3281 6.53125 28.7188 7.73438 28.25 9.20312C27.8125 10.6406 27.5938 12.3125 27.5938 14.2188C27.5938 16.125 27.7344 18.4062 28.0156 21.0625C28.3281 23.6875 28.6719 26.625 29.0469 29.875C29.4219 33.0938 29.75 36.5781 30.0312 40.3281C30.3438 44.0781 30.5 48.0156 30.5 52.1406C30.5 54.2656 30.3125 56.2812 29.9375 58.1875C29.5938 60.0625 29.0938 61.8125 28.4375 63.4375C27.7812 65.0625 27 66.5625 26.0938 67.9375C25.2188 69.3125 24.25 70.5625 23.1875 71.6875C24.9375 72.5 26.6562 73.3906 28.3438 74.3594C30.0625 75.3281 31.75 76.3125 33.4062 77.3125C35.0625 78.2812 36.7344 79.2188 38.4219 80.125C40.1094 81.0625 41.8125 81.875 43.5312 82.5625C45.25 83.2812 47.0156 83.8594 48.8281 84.2969C50.6406 84.7344 52.5312 84.9531 54.5 84.9531C58.2188 84.9531 61.0938 84.4062 63.125 83.3125L64.1094 84.5781C63.4531 85.1406 62.5469 85.7344 61.3906 86.3594C60.2656 87.0156 58.9844 87.6094 57.5469 88.1406C56.1406 88.7031 54.6406 89.1562 53.0469 89.5C51.4531 89.875 49.8594 90.0625 48.2656 90.0625C44.8594 90.0625 41.7188 89.5781 38.8438 88.6094C35.9688 87.6719 33.3125 86.5 30.875 85.0938C28.4375 83.6875 26.1719 82.1719 24.0781 80.5469C21.9844 78.9219 20 77.4219 18.125 76.0469C16.2812 77.2031 14.4219 78.0625 12.5469 78.625C10.7031 79.1875 9 79.4688 7.4375 79.4688C6.125 79.4688 5.03125 79.3125 4.15625 79C3.25 78.6562 2.53125 78.2344 2 77.7344C1.4375 77.2344 1.04688 76.6719 0.828125 76.0469C0.578125 75.4219 0.453125 74.8125 0.453125 74.2188C0.453125 73.5 0.671875 72.7969 1.10938 72.1094C1.54688 71.4219 2.1875 70.8125 3.03125 70.2812C3.84375 69.7188 4.82812 69.2812 5.98438 68.9688C7.14062 68.625 8.4375 68.4531 9.875 68.4531C11.4688 68.4531 13 68.5938 14.4688 68.875C15.9688 69.1562 17.4375 69.5156 18.875 69.9531C20.0312 68.1406 20.9688 65.9062 21.6875 63.25C22.4375 60.5625 22.8125 57.3281 22.8125 53.5469C22.8125 49.4219 22.6562 45.6719 22.3438 42.2969C22.0625 38.8906 21.7344 35.7031 21.3594 32.7344C21.0156 29.7344 20.6875 26.8594 20.375 24.1094C20.0938 21.3281 19.9531 18.5 19.9531 15.625C19.9531 13.0938 20.4062 10.875 21.3125 8.96875C22.25 7.03125 23.4375 5.42187 24.875 4.14062C26.3438 2.85938 27.9844 1.90625 29.7969 1.28125C31.6406 0.625 33.4688 0.296875 35.2812 0.296875C37.3125 0.296875 39.1719 0.609375 40.8594 1.23438C42.5781 1.85937 44.0469 2.71875 45.2656 3.8125C46.5156 4.875 47.4844 6.14063 48.1719 7.60938C48.8594 9.04688 49.2031 10.6094 49.2031 12.2969C49.2031 14.1094 48.9062 15.8125 48.3125 17.4062C47.7188 18.9688 46.9688 20.4062 46.0625 21.7188C45.1875 23 44.2188 24.1406 43.1562 25.1406C42.0938 26.1406 41.0781 26.9688 40.1094 27.625L38.6562 25.7031ZM7.4375 77.0781C8.625 77.0781 9.90625 76.8594 11.2812 76.4219C12.6562 75.9531 14 75.1875 15.3125 74.125C14 73.3125 12.7344 72.6406 11.5156 72.1094C10.3281 71.5781 9.14062 71.3125 7.95312 71.3125C6.57812 71.3125 5.4375 71.5625 4.53125 72.0625C3.59375 72.5312 3.125 73.25 3.125 74.2188C3.125 75.1875 3.51562 75.9062 4.29688 76.375C5.07812 76.8438 6.125 77.0781 7.4375 77.0781ZM65.5625 68.8281C65.4062 69.0781 65.1719 69.5156 64.8594 70.1406C64.5781 70.7344 64.2031 71.4062 63.7344 72.1562C63.2969 72.9062 62.7656 73.6875 62.1406 74.5C61.5469 75.3125 60.8594 76.0469 60.0781 76.7031C59.2969 77.3594 58.4219 77.9062 57.4531 78.3438C56.5156 78.7812 55.4688 79 54.3125 79C53.4062 79 52.4688 78.8125 51.5 78.4375C50.5312 78.0625 49.625 77.375 48.7812 76.375C47.9688 75.375 47.2969 74.0156 46.7656 72.2969C46.2344 70.5469 45.9688 68.2969 45.9688 65.5469C45.9688 62.9219 46.0625 60.2969 46.25 57.6719C46.4375 55.0156 46.6562 52.5938 46.9062 50.4062C47.1875 48.2188 47.4531 46.3906 47.7031 44.9219C47.9531 43.4531 48.1406 42.5625 48.2656 42.25C48.3906 41.9688 48.6406 41.7188 49.0156 41.5C49.3906 41.2812 49.8125 41.1094 50.2812 40.9844C50.7812 40.8594 51.2812 40.7656 51.7812 40.7031C52.3125 40.6406 52.7656 40.6094 53.1406 40.6094C53.6406 40.6094 54.0312 40.7344 54.3125 40.9844C54.625 41.2344 54.7812 41.6562 54.7812 42.25C54.7812 42.5312 54.7188 43.0938 54.5938 43.9375C54.5 44.75 54.375 45.75 54.2188 46.9375C54.0625 48.125 53.8906 49.4375 53.7031 50.875C53.5469 52.3125 53.3906 53.7812 53.2344 55.2812C53.0781 56.75 52.9375 58.2188 52.8125 59.6875C52.7188 61.125 52.6719 62.4375 52.6719 63.625C52.6719 67.0312 53.0312 69.5625 53.75 71.2188C54.5 72.875 55.7188 73.7031 57.4062 73.7031C58.8438 73.7031 60.2969 72.6562 61.7656 70.5625C63.2656 68.4688 64.5625 65.4219 65.6562 61.4219C65.8125 59.7344 65.9531 57.9375 66.0781 56.0312C66.2344 54.0938 66.375 52.2656 66.5 50.5469C66.625 48.7969 66.7344 47.2344 66.8281 45.8594C66.9531 44.4844 67.0625 43.5 67.1562 42.9062C67.25 42.4688 67.5 42.1094 67.9062 41.8281C68.3125 41.5156 68.7656 41.2812 69.2656 41.125C69.7969 40.9375 70.2969 40.8125 70.7656 40.75C71.2656 40.6562 71.6406 40.6094 71.8906 40.6094C72.4219 40.6094 72.7812 40.7344 72.9688 40.9844C73.1875 41.2031 73.2969 41.5625 73.2969 42.0625C73.2969 42.5 73.25 43.3438 73.1562 44.5938C73.0938 45.8125 73 47.25 72.875 48.9062C72.7812 50.5312 72.6719 52.2812 72.5469 54.1562C72.4219 56.0312 72.2969 57.8438 72.1719 59.5938C72.0781 61.3125 71.9844 62.875 71.8906 64.2812C71.8281 65.6875 71.7969 66.75 71.7969 67.4688C71.7969 69.5938 71.9062 71.2656 72.125 72.4844C72.375 73.7031 72.9062 74.3125 73.7188 74.3125C74.3125 74.3125 74.9531 73.9375 75.6406 73.1875C76.3594 72.4062 77.125 71.3281 77.9375 69.9531C78.7812 68.5781 79.6875 66.9531 80.6562 65.0781C81.625 63.1719 82.6719 61.0938 83.7969 58.8438L84.2656 57.8594L86.1875 59.3125L85.7188 60.2969C84.2188 63.2656 82.8906 65.9219 81.7344 68.2656C80.6094 70.5781 79.5312 72.5312 78.5 74.125C77.4688 75.7188 76.4219 76.9375 75.3594 77.7812C74.2969 78.5938 73.1094 79 71.7969 79C70.5781 79 69.5625 78.7656 68.75 78.2969C67.9688 77.8281 67.3438 77.1562 66.875 76.2812C66.4062 75.4062 66.0625 74.3438 65.8438 73.0938C65.6562 71.8438 65.5625 70.4219 65.5625 68.8281Z" fill="#63CDDA"/>
</svg>
