<svg width="300" height="300" viewBox="0 0 300 300" fill="none" xmlns="http://www.w3.org/2000/svg">
<path d="M0 167.578C0 238.72 61.1543 300 132.422 300C164.518 300 196.869 285.323 223.518 258.674C223.519 258.674 223.519 258.674 223.519 258.674C247.9 234.292 261.328 201.941 261.328 167.578C261.328 164.342 258.705 161.719 255.469 161.719H138.281V44.5312C138.281 41.2951 135.658 38.6719 132.422 38.6719C62.3484 38.6719 0 95.2623 0 167.578ZM126.562 50.5342V167.578C126.562 169.061 127.155 170.593 128.273 171.715C128.275 171.717 128.276 171.719 128.278 171.721L211.007 254.449C195.639 268.65 167.959 288.281 132.422 288.281C68.1223 288.281 11.7188 231.878 11.7188 167.578C11.7188 105.96 63.7248 53.6162 126.562 50.5342Z" fill="black"/>
<path d="M167.578 0C164.342 0 161.719 2.62324 161.719 5.85938V132.422C161.719 135.658 164.342 138.281 167.578 138.281H294.141C297.377 138.281 300 135.658 300 132.422C300 61.2141 238.815 0 167.578 0ZM173.438 126.562V11.8746C233.318 15.0645 284.936 66.682 288.125 126.562H173.438Z" fill="black"/>
</svg>
