<svg width="300" height="300" viewBox="0 0 300 300" fill="none" xmlns="http://www.w3.org/2000/svg">
<g clip-path="url(#clip0)">
<path d="M277.856 145.942C268.901 129.574 259.998 118.997 256.791 115.416V91.2584L298.395 57.0974C299.385 56.2835 299.971 55.0782 299.999 53.7961C300.027 52.5141 299.493 51.2841 298.539 50.4286L267.061 22.2146C265.254 20.595 262.475 20.7474 260.855 22.5539C259.235 24.361 259.387 27.1396 261.194 28.7598L288.858 53.5553L256.793 79.8843V61.9117C256.793 59.4846 254.826 57.517 252.398 57.517C249.971 57.517 248.004 59.4846 248.004 61.9117L248.001 113.416C216.623 118.494 184.865 118.494 153.486 113.415V61.9117C153.486 59.4846 151.519 57.517 149.091 57.517C146.664 57.517 144.697 59.4846 144.697 61.9117V79.886L112.629 53.5553L146.839 22.8879C151.872 18.3748 158.372 16.4992 164.626 17.2422C165.914 22.7748 168.872 34.3798 173.414 45.9408C180.878 64.9382 189.585 76.2953 199.29 79.6956C199.761 79.8603 200.252 79.9429 200.743 79.9429C201.234 79.9429 201.726 79.8603 202.196 79.6956C211.901 76.2953 220.608 64.9382 228.074 45.9413C232.609 34.402 235.563 22.8275 236.856 17.2814C240.728 16.8185 244.727 17.3365 248.444 18.928C250.677 19.8837 253.259 18.8483 254.214 16.6175C255.17 14.3862 254.135 11.8033 251.904 10.8482C240.615 6.01458 227.453 8.23479 218.37 16.5021L214.314 20.1937C206.577 27.2392 194.912 27.2392 187.177 20.1937L183.123 16.5021C171.148 5.6009 153.027 5.53351 140.972 16.3445L102.948 50.4298C101.993 51.2853 101.46 52.5158 101.488 53.7973C101.515 55.0794 102.102 56.2847 103.092 57.0986L144.695 91.2595V115.414C141.814 118.62 134.41 127.376 126.518 140.803C119.835 137.242 112.766 133.725 105.607 130.166C99.3496 127.054 93.0476 123.92 86.9982 120.738C92.9105 113.334 97.4711 104.954 99.4698 95.1292C102.524 80.1151 98.0564 66.7037 87.2132 58.3332C76.9337 50.3982 62.7775 48.6291 51.9859 53.9315C46.2013 56.7734 36.4972 64.1495 36.4972 81.6134C36.4972 92.6682 43.5176 103.119 57.9609 113.563C62.4787 116.83 67.5578 119.994 72.9638 123.081C66.2616 129.674 58.5697 135.542 51.3032 141.084C35.6587 153.016 20.8157 164.346 20.4319 179.612C10.8608 181.906 3.47597 189.888 2.19037 199.941C-0.732402 222.828 -0.732402 246.038 2.19037 268.927C3.66699 280.467 13.1859 289.287 24.8254 289.897C48.1631 291.114 71.6648 291.722 95.1671 291.722C118.669 291.722 142.172 291.114 165.51 289.897C177.153 289.287 186.669 280.466 188.138 268.927C189.014 262.084 189.622 255.212 189.974 248.329C193.549 248.436 197.155 248.493 200.743 248.493C258.114 248.493 295.546 235.069 297.111 234.498C298.845 233.865 299.999 232.216 299.999 230.37C300 194.039 287.959 164.405 277.856 145.942V145.942ZM181.26 26.6896C192.366 36.8086 209.121 36.8086 220.233 26.6908L224.288 22.9998C225.112 22.2498 225.983 21.5695 226.892 20.9589C225.366 26.781 223.024 34.7647 219.896 42.725C212.57 61.3662 205.653 68.3514 200.745 70.7837C195.837 68.3514 188.92 61.3662 181.596 42.725C178.468 34.7636 176.126 26.7746 174.6 20.9501C175.505 21.5613 176.376 22.2433 177.207 22.9992L181.26 26.6896ZM45.2889 81.6111C45.2889 72.0611 48.9453 65.2165 55.8638 61.8174C58.7572 60.3958 62.0638 59.7061 65.4671 59.7061C71.1544 59.7061 77.1101 61.6334 81.8447 65.288C86.5985 68.9573 94.0906 77.4859 90.8591 93.3743C89.0877 102.084 84.7539 109.661 79.0983 116.454C60.1044 105.81 45.2889 94.5098 45.2889 81.6111V81.6111ZM25.2837 187.75C33.1174 187.344 40.954 187.004 48.5762 186.74C51.002 186.656 52.9 184.622 52.8156 182.196C52.7312 179.769 50.7126 177.879 48.2715 177.956C42.0556 178.171 35.6973 178.439 29.3151 178.749C30.4471 168.053 42.6878 158.708 56.6355 148.07C64.8289 141.82 73.527 135.186 81.0032 127.504C87.7377 131.093 94.7692 134.59 101.695 138.033C108.627 141.48 115.615 144.956 122.243 148.492C117.889 156.764 113.607 166.39 110.063 177.235C95.2796 177.071 80.5204 177.134 65.8714 177.456C63.4443 177.509 61.5206 179.519 61.5739 181.946C61.6273 184.373 63.6271 186.317 66.0636 186.243C98.8246 185.524 132.13 186.032 165.055 187.75C172.447 188.133 178.489 193.727 179.422 201.053C180.039 205.876 180.514 210.714 180.862 215.56C180.507 220.424 180.025 225.252 179.422 229.924C178.49 237.243 172.446 242.834 165.048 243.218C155.097 243.738 145.1 244.142 135.245 244.438C135.456 238.232 135.319 232.001 134.822 225.83C134.15 217.484 127.379 210.846 119.074 210.392C104.853 209.614 90.4325 209.614 76.2153 210.392C67.9093 210.846 61.1392 217.484 60.4665 225.83C59.9655 232.048 59.8301 238.327 60.0481 244.581C48.4748 244.273 36.8071 243.821 25.2837 243.218C17.8877 242.835 11.8429 237.244 10.9112 229.922C10.3217 225.306 9.83832 220.493 9.47034 215.613C9.8184 210.749 10.293 205.893 10.9112 201.053C11.8476 193.728 17.8923 188.133 25.2837 187.75V187.75ZM129.977 152.755C144.214 160.903 155.717 169.425 159.583 178.691C146.184 178.051 132.736 177.608 119.292 177.367C122.46 168.193 126.188 159.944 129.977 152.755V152.755ZM126.061 251.241C125.74 255.227 122.529 258.394 118.593 258.609C118.593 258.609 118.593 258.609 118.593 258.609C104.692 259.37 90.5966 259.37 76.6946 258.609C72.7587 258.394 69.5483 255.227 69.2272 251.241C68.5668 243.045 68.5668 234.733 69.2272 226.536C69.5483 222.551 72.7588 219.384 76.6952 219.168C83.6453 218.788 90.6446 218.598 97.6439 218.598C104.643 218.598 111.643 218.788 118.593 219.168C122.529 219.384 125.74 222.551 126.061 226.536C126.721 234.733 126.721 243.045 126.061 251.241ZM165.053 281.118C118.681 283.535 71.6571 283.535 25.2866 281.118C17.8941 280.73 11.8476 275.133 10.9112 267.811C9.94204 260.22 9.31272 252.593 9.00802 244.954C13.1015 249.058 18.6664 251.676 24.8266 251.996C36.6987 252.618 48.7262 253.08 60.6475 253.39C61.9361 261.047 68.3939 266.958 76.2147 267.386C83.3248 267.775 90.4846 267.969 97.6439 267.969C104.803 267.969 111.964 267.775 119.072 267.386C126.941 266.955 133.429 260.974 134.661 253.249C144.854 252.95 155.205 252.534 165.503 251.996C171.667 251.676 177.234 249.056 181.328 244.951C181.023 252.591 180.393 260.22 179.422 267.812C178.489 275.135 172.446 280.73 165.053 281.118V281.118ZM276.787 231.138C275.883 217.927 274.213 204.763 271.804 191.934C271.357 189.549 269.062 187.979 266.674 188.426C264.289 188.874 262.718 191.17 263.166 193.556C265.591 206.477 267.242 219.75 268.1 233.063C264.716 233.756 260.879 234.476 256.633 235.177C256.101 217.504 254.215 199.905 251.005 182.792C250.557 180.406 248.26 178.837 245.875 179.282C243.49 179.73 241.919 182.027 242.367 184.412C245.556 201.421 247.407 218.924 247.88 236.499C234.776 238.298 218.774 239.703 200.744 239.703C197.258 239.703 193.755 239.648 190.282 239.544C190.53 226.318 189.82 213.076 188.14 199.942C186.822 189.593 179.037 181.441 169.055 179.426C165.829 165.997 152.041 155.209 134.269 145.068C141.293 133.179 147.865 125.16 150.734 121.87C167.333 124.632 184.04 126.017 200.746 126.017C217.451 126.017 234.156 124.632 250.755 121.87C254.053 125.641 262.216 135.612 270.288 150.426C279.538 167.399 290.51 194.301 291.177 227.21C288.319 228.112 283.418 229.555 276.787 231.138V231.138Z" fill="#303030"/>
<path d="M115.279 225.834C109.409 225.559 103.476 225.42 97.6438 225.42C91.8112 225.42 85.8777 225.559 80.0076 225.834C77.7657 225.939 75.9633 227.716 75.8262 229.957C75.4658 235.883 75.4658 241.894 75.8262 247.821C75.9627 250.062 77.7657 251.839 80.0076 251.944C85.8731 252.218 91.8071 252.357 97.6438 252.357C103.48 252.357 109.413 252.218 115.279 251.944C117.521 251.839 119.323 250.062 119.46 247.821C119.821 241.894 119.821 235.884 119.46 229.957C119.324 227.717 117.521 225.939 115.279 225.834ZM110.871 243.329C102.037 243.646 93.2491 243.646 84.4169 243.329C84.3226 240.373 84.3226 237.405 84.4169 234.449C93.255 234.131 102.033 234.131 110.871 234.449C110.965 237.405 110.965 240.373 110.871 243.329V243.329Z" fill="#303030"/>
</g>
<defs>
<clipPath id="clip0">
<rect width="300" height="300" fill="white"/>
</clipPath>
</defs>
</svg>
