<svg width="300" height="300" viewBox="0 0 300 300" fill="none" xmlns="http://www.w3.org/2000/svg">
<path d="M149.6 101.892L255.2 54.2691L149.277 6L44 54.7534M149.6 101.892L254.716 149.839V245.668M149.6 101.892L44 54.7534M254.716 245.668L149.116 294L44 245.892L150.246 198.108M254.716 245.668L150.246 198.108M150.246 198.108L44 150.161V54.7534" stroke="black" stroke-width="10"/>
<path d="M229.758 102.242V140.876C229.758 181.342 204.676 214.146 173.733 214.146C159.752 214.146 146.968 207.451 137.151 196.376C145.967 194.106 154.04 189.129 160.845 182.142C166.542 176.29 171.353 169.025 174.965 160.75C178.56 152.512 180.966 143.272 181.88 133.425C182.156 130.498 182.295 127.512 182.295 124.487V102.242H229.758Z" fill="white"/>
<path d="M197.407 180.492C197.407 182.483 197.054 184.405 196.396 186.221C190.579 182.681 182.574 180.492 173.733 180.492C169.148 180.492 164.791 181.079 160.845 182.142C166.542 176.29 171.353 169.025 174.965 160.75C187.464 161.285 197.407 169.916 197.407 180.492V180.492Z" fill="white"/>
<path d="M197.408 141.575C205.983 141.575 212.935 137.926 212.935 133.426C212.935 128.925 205.983 125.276 197.408 125.276C188.833 125.276 181.881 128.925 181.881 133.426C181.881 137.926 188.833 141.575 197.408 141.575Z" fill="white"/>
<path d="M70.2422 85.854V124.488C70.2422 164.952 95.3247 197.756 126.268 197.756C157.212 197.756 182.294 164.952 182.294 124.488V85.854H70.2422Z" fill="white"/>
<path d="M149.944 158.216C149.944 169.135 139.342 177.982 126.268 177.982C113.195 177.982 102.592 169.135 102.592 158.216C102.592 156.225 102.948 154.301 103.604 152.486C109.422 156.029 117.427 158.216 126.268 158.216C135.11 158.216 143.115 156.029 148.933 152.486C149.589 154.301 149.944 156.226 149.944 158.216Z" fill="white"/>
<path d="M102.592 125.186C111.167 125.186 118.119 121.537 118.119 117.036C118.119 112.536 111.167 108.887 102.592 108.887C94.017 108.887 87.0654 112.536 87.0654 117.036C87.0654 121.537 94.017 125.186 102.592 125.186Z" fill="white"/>
<path d="M149.944 125.186C158.52 125.186 165.471 121.537 165.471 117.036C165.471 112.536 158.52 108.887 149.944 108.887C141.369 108.887 134.417 112.536 134.417 117.036C134.417 121.537 141.369 125.186 149.944 125.186Z" fill="white"/>
<path d="M229.758 98.9999H185.536V85.8538C185.536 84.0631 184.084 82.6116 182.294 82.6116H116.209C114.419 82.6116 112.967 84.0631 112.967 85.8538C112.967 87.6441 114.419 89.0959 116.209 89.0959H179.052V124.488C179.052 163.1 155.373 194.513 126.268 194.513C97.163 194.514 73.4844 163.1 73.4844 124.488V89.0959H117.258C119.048 89.0959 120.5 87.6441 120.5 85.8538C120.5 84.0631 119.048 82.6116 117.258 82.6116H70.2422C68.4515 82.6116 67 84.0631 67 85.8538V124.488C67 144.766 73.0645 163.864 84.0756 178.265C95.2852 192.925 110.269 200.998 126.268 200.998C129.579 200.998 132.846 200.647 136.046 199.968C146.627 211.216 159.94 217.388 173.732 217.388C189.731 217.388 204.715 209.315 215.924 194.655C226.936 180.254 233 161.155 233 140.876V102.242C233 100.452 231.548 98.9999 229.758 98.9999ZM176.979 164.177C186.773 165.438 194.165 172.294 194.165 180.492C194.165 180.787 194.155 181.082 194.136 181.376C188.219 178.697 181.134 177.25 173.732 177.25C172.159 177.25 170.605 177.321 169.069 177.449C172.105 173.363 174.749 168.913 176.979 164.177ZM226.516 140.876C226.516 179.49 202.838 210.904 173.733 210.904C162.741 210.904 152.03 206.316 143.12 197.886C150.129 195.227 156.692 190.902 162.523 185.064C166.071 184.185 169.835 183.734 173.733 183.734C181.692 183.734 189.142 185.601 194.71 188.99C195.224 189.303 195.808 189.463 196.396 189.463C196.758 189.463 197.121 189.402 197.471 189.28C198.388 188.957 199.112 188.24 199.444 187.326C200.244 185.119 200.649 182.82 200.649 180.492C200.649 169.531 191.697 160.314 179.579 158.03C181.695 152.425 183.269 146.497 184.265 140.356C187.323 142.641 191.725 144.817 197.408 144.817C208.686 144.817 214.928 136.245 215.603 135.268C216.368 134.159 216.368 132.693 215.604 131.585C214.929 130.607 208.689 122.034 197.408 122.034C192.465 122.034 188.489 123.681 185.526 125.613C185.53 125.238 185.536 124.864 185.536 124.489V105.485H226.516V140.876ZM186.135 133.425C188.135 131.425 191.975 128.518 197.408 128.518C202.841 128.518 206.682 131.425 208.681 133.425C206.681 135.426 202.841 138.333 197.408 138.333C191.976 138.333 188.135 135.426 186.135 133.425Z" fill="black"/>
<path d="M102.592 89.0962C104.383 89.0962 105.834 87.6446 105.834 85.854C105.834 84.0634 104.383 82.6118 102.592 82.6118C100.801 82.6118 99.3499 84.0634 99.3499 85.854C99.3499 87.6446 100.801 89.0962 102.592 89.0962Z" fill="black"/>
<path d="M105.29 149.717C104.459 149.21 103.445 149.105 102.527 149.427C101.61 149.75 100.885 150.468 100.555 151.383C99.7551 153.594 99.3499 155.893 99.3499 158.216C99.3499 170.903 111.425 181.224 126.268 181.224C141.111 181.224 153.186 170.903 153.186 158.216C153.186 155.893 152.781 153.594 151.982 151.383C151.651 150.468 150.927 149.75 150.009 149.427C149.091 149.104 148.077 149.21 147.246 149.717C141.679 153.107 134.229 154.974 126.268 154.974C118.307 154.974 110.857 153.107 105.29 149.717V149.717ZM146.702 158.216C146.702 167.328 137.535 174.74 126.268 174.74C115.001 174.74 105.834 167.328 105.834 158.216C105.834 157.921 105.844 157.626 105.863 157.332C111.78 160.01 118.865 161.458 126.268 161.458C133.672 161.458 140.756 160.01 146.673 157.332C146.692 157.626 146.702 157.921 146.702 158.216Z" fill="black"/>
<path d="M102.592 105.645C91.3143 105.645 85.0718 114.217 84.3971 115.195C83.632 116.303 83.632 117.77 84.3971 118.878C85.0718 119.856 91.3143 128.428 102.592 128.428C113.87 128.428 120.113 119.856 120.787 118.878C121.553 117.77 121.553 116.303 120.787 115.195C120.113 114.217 113.87 105.645 102.592 105.645V105.645ZM102.592 121.943C97.1603 121.943 93.3199 119.037 91.3198 117.036C93.3196 115.036 97.16 112.129 102.592 112.129C108.025 112.129 111.865 115.036 113.865 117.036C111.865 119.037 108.024 121.943 102.592 121.943V121.943Z" fill="black"/>
<path d="M149.944 128.428C161.222 128.428 167.465 119.856 168.139 118.878C168.905 117.77 168.905 116.304 168.139 115.195C167.465 114.218 161.222 105.646 149.944 105.646C138.666 105.646 132.424 114.218 131.749 115.195C130.984 116.304 130.984 117.77 131.749 118.878C132.424 119.856 138.666 128.428 149.944 128.428V128.428ZM149.944 112.13C155.376 112.13 159.217 115.036 161.217 117.037C159.217 119.037 155.376 121.944 149.944 121.944C144.512 121.944 140.672 119.037 138.672 117.037C140.672 115.036 144.512 112.13 149.944 112.13Z" fill="black"/>
</svg>
